# xmcd CD database file
#
# Track frame offsets:
#	150
#	13117
#	26561
#	38554
#	53533
#	67855
#	81848
#	96168
#	109724
#	123442
#	138485
#	153208
#	165997
#	179787
#	193580
#	205303
#	218087
#	232605
#	246915
#	258726
#
# Disc length: 3636 seconds
#
# Revision: 0
# Processed by: cddbd v1.5PL3 Copyright (c) Steve Scherf et al.
# Submitted via: CDex 1.51
#
DISCID=080e3214
DTITLE=Ella Fitzgerald - Sophisticated Lady - The Greatest Hits II
DYEAR=2001
DGENRE=Jazz
TTITLE0=Strictly From Dixie
TTITLE1=F. D. R. Jones
TTITLE2=I Found My Yellow Basket
TTITLE3=Undecided
TTITLE4=My Heart Belongs To Daddy
TTITLE5=Chew-Chew-Chew (Your Bubble Gum)
TTITLE6=If Anything Happens To You
TTITLE7=Little White Lies
TTITLE8=Betcha Nickel
TTITLE9=Stairway To The Stars
TTITLE10=I Want The Waiter (With The Water)
TTITLE11=After I Say I'm Sorry
TTITLE12=My Wubba Dolly (Rubber Dolly)
TTITLE13=What's The Matter With Me
TTITLE14=Baby, Won't You Please Come Home
TTITLE15=Shake Down The Stars
TTITLE16=Five O'Clock Whistle
TTITLE17=Taking A Chance On Love
TTITLE18=Three Little Words
TTITLE19=I Must Have That Man
EXTD=YEAR: 2001
EXTT0=
EXTT1=
EXTT2=
EXTT3=
EXTT4=
EXTT5=
EXTT6=
EXTT7=
EXTT8=
EXTT9=
EXTT10=
EXTT11=
EXTT12=
EXTT13=
EXTT14=
EXTT15=
EXTT16=
EXTT17=
EXTT18=
EXTT19=
PLAYORDER=
